<?xml version="1.0" standalone="no"?>
<!DOCTYPE svg PUBLIC "-//W3C//DTD SVG 20010904//EN"
 "http://www.w3.org/TR/2001/REC-SVG-20010904/DTD/svg10.dtd">
<svg version="1.0" xmlns="http://www.w3.org/2000/svg"
 width="967.000000pt" height="133.000000pt" viewBox="0 0 967.000000 133.000000"
 preserveAspectRatio="xMidYMid meet">
<metadata>
Created by potrace 1.12, written by Peter Selinger 2001-2015
</metadata>
<g transform="translate(0.000000,133.000000) scale(0.100000,-0.100000)"
fill="#000000" stroke="none">
<path d="M0 665 l0 -665 4835 0 4835 0 0 665 0 665 -4835 0 -4835 0 0 -665z
m2631 536 c67 -32 126 -86 161 -148 29 -51 32 -53 63 -47 19 3 56 -1 87 -10
171 -50 234 -253 120 -386 -58 -69 -100 -84 -227 -85 l-110 0 0 35 0 35 110 5
c96 4 114 8 144 29 98 70 86 227 -21 282 -33 17 -55 20 -115 17 l-75 -3 -20
52 c-41 112 -164 190 -279 180 -73 -6 -136 -35 -184 -82 -142 -143 -86 -394
104 -462 53 -19 62 -34 38 -67 -12 -17 -18 -17 -53 -6 -100 31 -198 132 -229
235 -54 177 49 379 224 439 67 23 201 17 262 -13z m6398 -55 c19 -22 10 -146
-11 -159 -12 -8 -21 -7 -32 2 -20 17 -23 156 -3 164 22 9 34 7 46 -7z m-4091
-22 c167 -38 275 -136 247 -224 -19 -59 -109 -124 -216 -156 -124 -37 -331
-34 -458 7 -35 11 -66 18 -69 15 -2 -3 1 -19 8 -35 13 -31 47 -52 118 -71 39
-10 43 -14 40 -38 -2 -18 -10 -28 -28 -32 -36 -8 -38 -43 -4 -69 31 -24 75
-38 156 -47 67 -8 85 -22 68 -54 -11 -20 -18 -22 -88 -19 -75 4 -77 3 -80 -20
-2 -13 1 -28 7 -34 19 -19 13 -55 -10 -62 -33 -11 -73 34 -73 82 0 21 3 45 8
54 5 12 -2 22 -27 38 -39 24 -68 82 -60 122 4 22 -1 30 -31 47 -55 32 -78 76
-73 139 3 45 0 56 -19 74 -56 53 -55 124 3 183 108 107 360 151 581 100z
m-4271 -32 c71 -104 87 -174 57 -237 -58 -123 -234 -76 -234 62 0 53 11 83 62
161 51 78 70 81 115 14z m6418 -27 c15 -65 26 -84 74 -128 48 -43 108 -61 173
-53 l48 7 0 -43 c0 -40 -31 -128 -45 -128 -4 0 -19 8 -33 19 -41 28 -98 50
-153 57 -45 6 -53 11 -80 51 -32 46 -115 117 -149 128 -11 4 -20 15 -20 25 0
35 120 123 159 117 8 -1 19 -23 26 -52z m1669 -84 c50 -50 56 -75 24 -95 -15
-9 -27 -2 -74 45 -50 50 -55 59 -45 78 18 33 42 25 95 -28z m580 43 c30 -11
17 -49 -34 -99 -42 -41 -53 -48 -68 -39 -32 20 -25 45 24 95 51 51 53 53 78
43z m-2459 -104 c65 -31 120 -83 155 -143 l28 -50 64 -2 c77 -2 132 -29 180
-85 101 -118 65 -298 -76 -373 -39 -21 -56 -22 -283 -25 -193 -3 -255 0 -303
12 -105 27 -189 95 -238 195 -23 48 -27 68 -27 146 0 76 4 99 26 145 45 97
121 166 214 197 64 21 200 12 260 -17z m-6487 -59 c83 -126 116 -204 115 -276
-2 -212 -247 -294 -351 -117 -22 39 -27 59 -27 117 0 82 22 137 109 270 73
112 84 112 154 6z m8700 23 c140 -58 181 -234 81 -348 -101 -114 -280 -98
-357 33 -22 38 -27 58 -27 111 1 71 15 107 62 154 61 62 163 83 241 50z
m-6454 -146 c3 -13 8 -54 11 -93 3 -38 8 -94 11 -122 l6 -53 52 0 c90 0 90 -1
9 -165 -94 -188 -105 -190 -118 -20 -3 44 -8 99 -12 123 l-5 42 -52 0 c-85 0
-85 1 -11 151 37 74 72 140 77 147 16 18 27 15 32 -10z m6047 -28 c21 -12 25
-40 7 -58 -18 -18 -133 -15 -152 4 -36 35 -4 64 70 64 31 0 64 -5 75 -10z
m793 -12 c21 -34 -4 -53 -73 -56 -65 -3 -91 7 -91 37 0 32 22 42 89 39 48 -2
67 -7 75 -20z m-8744 -38 c28 -15 118 -166 136 -228 36 -121 -37 -234 -151
-234 -122 0 -196 123 -150 252 23 66 122 220 142 220 2 0 13 -5 23 -10z m4219
-24 c37 -45 -63 -83 -192 -73 -78 5 -110 25 -91 55 9 14 27 17 107 17 52 0 99
3 103 8 13 12 61 8 73 -7z m171 -136 c0 -43 -169 -113 -233 -96 -24 6 -28 11
-25 34 3 25 9 28 66 39 34 7 84 24 110 37 51 26 82 21 82 -14z m3661 -30 c31
-17 22 -42 -30 -94 -50 -49 -75 -56 -95 -24 -9 15 -2 27 44 73 30 30 56 55 58
55 2 0 12 -5 23 -10z m520 -37 c39 -36 49 -52 47 -72 -5 -43 -35 -38 -89 15
-50 49 -58 71 -37 92 18 18 25 15 79 -35z m-280 -63 c16 -9 19 -22 19 -79 0
-72 -12 -96 -47 -89 -33 6 -29 178 4 178 2 0 13 -5 24 -10z m-4123 -85 c17 -6
15 -40 -3 -55 -17 -14 -103 -18 -157 -7 -24 5 -39 15 -43 28 -13 38 9 47 103
42 48 -2 93 -6 100 -8z"/>
<path d="M4620 1064 c-106 -22 -190 -62 -224 -106 -20 -28 -20 -28 0 -55 46
-64 201 -113 354 -113 153 0 306 49 353 112 19 25 19 28 3 52 -22 34 -53 54
-134 84 -56 21 -88 25 -197 28 -71 1 -141 0 -155 -2z"/>
<path d="M586 992 c-31 -61 -33 -93 -8 -115 27 -24 59 -21 78 8 19 29 13 64
-20 120 l-24 39 -26 -52z"/>
<path d="M6637 866 c-99 -37 -167 -114 -187 -213 -27 -128 43 -260 166 -315
41 -17 65 -19 306 -16 260 3 263 3 297 27 46 33 75 101 67 155 -18 113 -122
172 -243 137 -32 -9 -32 -9 -48 39 -38 115 -135 190 -254 197 -41 2 -80 -2
-104 -11z"/>
<path d="M287 804 c-39 -62 -84 -156 -91 -191 -18 -82 40 -163 118 -163 50 0
83 21 102 66 29 70 11 147 -63 263 l-41 64 -25 -39z"/>
<path d="M8940 812 c-19 -9 -45 -33 -58 -52 -20 -29 -23 -45 -20 -93 4 -46 10
-63 33 -87 94 -98 255 -36 255 97 0 57 -29 104 -80 131 -53 27 -84 28 -130 4z"/>
<path d="M693 534 c-56 -80 -76 -144 -63 -196 20 -71 89 -90 141 -39 39 40 39
92 0 169 -16 31 -36 65 -44 76 -13 18 -15 18 -34 -10z"/>
</g>
</svg>
